<svg id="Layer_1" data-name="Layer 1" xmlns="http://www.w3.org/2000/svg" viewBox="0 0 100 100"><defs><style>.cls-1{fill:#fefefe;}.cls-2{fill:#111;}.cls-3{fill:#fe6633;}.cls-4{fill:#606060;}</style></defs><title>1</title><path class="cls-1" d="M100.32,50.4q0,24.48,0,49c0,.82-.16,1-1,1q-49.08,0-98.16,0c-.82,0-1-.16-1-1q0-49.08,0-98.16c0-.82.16-1,1-1q49.08,0,98.16,0c.82,0,1,.16,1,1Q100.3,25.8,100.32,50.4Z"/><path class="cls-2" d="M50.41,97.52c-.25-.3-.45-.61-.7-.86L11.19,58.14C9,55.93,6.82,53.68,4.55,51.54c-.82-.77-.65-1.14,0-1.83Q26.18,28.19,47.71,6.62c.74-.73,1.48-1.46,2.17-2.23.44-.49.73-.58,1.2,0s1.27,1.33,1.92,2Q73.86,27.21,94.74,48.08c.65.65,1.28,1.34,2,1.92s.47.81,0,1.31Q73.89,74.07,51.12,96.86C50.93,97.05,50.72,97.23,50.41,97.52Z"/><path class="cls-1" d="M50.5,94.22l-.73-.67L39.68,83.45Q23.74,67.51,7.77,51.57c-.69-.69-.86-1-.06-1.82q21-20.91,41.91-41.9c.7-.7,1-.73,1.73,0q20.91,21,41.9,41.91c.66.66.82,1,.06,1.73q-21,21-42,42Z"/><path class="cls-3" d="M51.69,67.74a16.79,16.79,0,0,0,10-3.12,4.29,4.29,0,0,0,.48-.36,1.48,1.48,0,0,0,.19-2.15,1.35,1.35,0,0,0-2-.29c-3.56,2.12-7,1.66-10.06-1.16A36.88,36.88,0,0,1,41.39,47.2c-1.28-3.16.39-7.59,3.33-9.31,3.11-1.82,5-1.26,5.47,2.35.12.94.44,1.86.63,2.8A2.25,2.25,0,0,1,49.43,46c-2.39,1.09-1.88,1.15-.7,3s2.54,3.87,3.82,5.79c.67,1,1,1,1.87.16,1.72-1.73,2.23-1.8,4.35-.58,1,.57,2,1.13,3,1.74a2.31,2.31,0,0,1,.95,3.45c-.29.53-.18.68.25,1a3.16,3.16,0,0,1-.09,5.2,18.62,18.62,0,1,1,4.46-25.26,19,19,0,0,1,3.09,9.68c0,.61.07,1.34-.77,1.35s-.8-.71-.83-1.32a17,17,0,1,0-24,16.09A16,16,0,0,0,51.69,67.74Z"/><path class="cls-4" d="M50.53,91.41c-.09-.11-.29-.25-.29-.39s.28-.2.46-.22.42,0,.34.3A.48.48,0,0,1,50.53,91.41Z"/></svg>