<svg id="Layer_1" data-name="Layer 1" xmlns="http://www.w3.org/2000/svg" viewBox="0 0 100 100"><defs><style>.cls-1{fill:#fefefe;}.cls-2{fill:#bea181;}</style></defs><title>10</title><rect class="cls-1" width="100" height="100"/><path class="cls-2" d="M78.78,32.94a21.25,21.25,0,0,1-5.34,1.56c.86-.15,2.12-1.74,2.63-2.38a10,10,0,0,0,1.77-3.3c0-.09.08-.21,0-.28a.33.33,0,0,0-.29,0A26.87,26.87,0,0,1,71.21,31a.43.43,0,0,1-.44-.12,6.2,6.2,0,0,0-.56-.58,11,11,0,0,0-3.07-1.92,10.4,10.4,0,0,0-4.71-.77A11.12,11.12,0,0,0,58,28.93a11.62,11.62,0,0,0-3.61,3,11.27,11.27,0,0,0-2.15,4.39A12.13,12.13,0,0,0,52.1,41c0,.26,0,.29-.22.26C43,39.89,35.69,36.62,29.78,29.55c-2.93,3.88-1.72,10.51,1.6,13.71a15.46,15.46,0,0,0,1.34,1.2,10.87,10.87,0,0,1-4.21-1.2c-.25-.16-.38-.07-.4.22a7,7,0,0,0,.07,1.28,11.37,11.37,0,0,0,6.88,9.08,6.14,6.14,0,0,0,1.4.43,12,12,0,0,1-4.12.13c-.3-.06-.42.1-.3.39,1.81,5,5.72,6.54,8.66,7.4.39.07.78.07,1.18.16,0,0-.05,0-.07.07-1,1.51-4.35,2.64-5.92,3.2a20.64,20.64,0,0,1-9,1.17c-.49-.07-.59-.06-.72,0s0,.2.14.33c1.14.77,2.32,1.38,3.55,2,11.73,5.07,26.17,3.46,35.38-5.87,6.36-6.45,8.59-15.34,8.59-24.24,0-.35.4-.55.64-.73a21.17,21.17,0,0,0,4.23-4.48A1.36,1.36,0,0,0,79,33v-.05C79,32.8,79,32.84,78.78,32.94Z"/></svg>