<svg id="Layer_1" data-name="Layer 1" xmlns="http://www.w3.org/2000/svg" viewBox="0 0 100 100"><defs><style>.cls-1{fill:#fefefe;}.cls-2{fill:#bc9f80;}.cls-3{fill:#bc9f81;}</style></defs><title>12</title><rect class="cls-1" width="100" height="100"/><path class="cls-2" d="M60.06,73H37.14A11.65,11.65,0,0,0,36,72.9,10,10,0,0,1,31.28,71a12.26,12.26,0,0,1-3.71-4.1,8.9,8.9,0,0,1-1.33-4.63.23.23,0,0,0,0-.16V39.14A11.11,11.11,0,0,0,26.31,38a9.91,9.91,0,0,1,1.9-4.63,12.28,12.28,0,0,1,4.16-3.79,10.21,10.21,0,0,1,5.15-1.4q11.08,0,22.16,0A11,11,0,0,1,66.83,31a12,12,0,0,1,2.71,3.23A9,9,0,0,1,71,39a.22.22,0,0,0,0,.16V62.07a11.11,11.11,0,0,0-.11,1.16A9.94,9.94,0,0,1,69,67.92a12.18,12.18,0,0,1-4.1,3.72A8.89,8.89,0,0,1,60.22,73,.2.2,0,0,0,60.06,73Z"/><path class="cls-1" d="M36.35,50.61a12.25,12.25,0,1,1,12,12.23A12.25,12.25,0,0,1,36.35,50.61Z"/><path class="cls-2" d="M48.61,40.91a9.65,9.65,0,0,1,9.66,9.69,9.67,9.67,0,1,1-19.34,0A9.65,9.65,0,0,1,48.61,40.91Z"/><path class="cls-1" d="M61.63,41.25a3.68,3.68,0,1,1,3.68-3.67A3.67,3.67,0,0,1,61.63,41.25Z"/><path class="cls-3" d="M61.62,38.71a1.16,1.16,0,0,1-1.12-1.1,1.21,1.21,0,0,1,1.12-1.17,1.26,1.26,0,0,1,1.14,1.12A1.21,1.21,0,0,1,61.62,38.71Z"/></svg>