<svg id="Layer_1" data-name="Layer 1" xmlns="http://www.w3.org/2000/svg" viewBox="0 0 100 100"><defs><style>.cls-1{fill:#fefefe;}.cls-2{fill:#111;}.cls-3{fill:#fe6633;}.cls-4{fill:#606060;}</style></defs><title>2</title><path class="cls-1" d="M.24,50.16q0-24.48,0-48.95c0-.8.13-1,1-1q49.07,0,98.13,0c.92,0,1,.26,1,1.07q0,49,0,98c0,.84-.14,1.06-1,1.06q-49,0-98,0c-.94,0-1.08-.27-1.08-1.13Q.27,74.7.24,50.16Z"/><path class="cls-2" d="M50.49,97.69a11.49,11.49,0,0,0-.84-1.09q-22.53-22.53-45.07-45c-.73-.72-.78-1.07,0-1.83Q26.37,28,48.11,6.22c.65-.65,1.3-1.29,1.92-2,.35-.39.58-.38.93,0,.61.68,1.27,1.33,1.92,2l42,42c.57.56,1.11,1.15,1.73,1.66s.65.88,0,1.48c-2.3,2.22-4.54,4.51-6.8,6.77L51.58,96.41C51.24,96.75,51,97.14,50.49,97.69Z"/><path class="cls-1" d="M94.44,50.72a7.61,7.61,0,0,0-1.13.74q-8.84,8.81-17.65,17.63Q63.5,81.27,51.33,93.45c-.62.62-.93.76-1.64,0q-21-21.07-42.07-42.08c-.64-.63-.64-.93,0-1.56q21.06-21,42.08-42.08c.59-.6.88-.72,1.55,0q21,21.12,42.15,42.18A12.81,12.81,0,0,0,94.44,50.72Z"/><path class="cls-3" d="M31.53,35.91c1.17-.55,36.63-.57,38.09.06-2.18,2.15-4.32,4.23-6.43,6.34-3.82,3.81-7.62,7.63-11.44,11.44-1,1-1.6,1-2.55,0Q40.39,45,31.61,36.12C31.56,36.07,31.56,36,31.53,35.91Z"/><path class="cls-3" d="M31.26,64.9c2.41-2.33,4.74-4.57,7-6.82,1.75-1.71,3.49-3.42,5.18-5.18.54-.57.87-.58,1.4,0,.93,1,1.93,1.92,2.9,2.87a3.73,3.73,0,0,0,5.35,0c1.07-1,2.14-2,3.18-3.09.37-.38.6-.34.95,0Q63.13,58.63,69,64.52c.49.49.39.74-.28.79-.35,0-.71,0-1.07,0H33.24A3,3,0,0,1,31.26,64.9Z"/><path class="cls-3" d="M71.24,37.69a2.9,2.9,0,0,1,.48,1.87V61.37a2.39,2.39,0,0,1,0,.71c-.11.36,0,.91-.44,1s-.53-.4-.78-.65C66.72,58.7,63,54.93,59.22,51.2c-.51-.51-.65-.8,0-1.38,3.57-3.53,7.1-7.1,10.64-10.66C70.28,38.69,70.74,38.21,71.24,37.69Z"/><path class="cls-3" d="M29.8,37.52c1.48,1.56,2.88,3.07,4.32,4.54,2.57,2.63,5.16,5.24,7.74,7.84.32.32.65.55.15,1Q35.8,57,29.61,63.13a2.46,2.46,0,0,1-.33-1.46V39.25A2.92,2.92,0,0,1,29.8,37.52Z"/><path class="cls-4" d="M50.58,90.8c.21,0,.47-.06.46.22a.57.57,0,0,1-.36.37c-.2.08-.38-.11-.43-.29S50.44,90.85,50.58,90.8Z"/></svg>