<svg id="Layer_1" data-name="Layer 1" xmlns="http://www.w3.org/2000/svg" viewBox="0 0 100 100"><defs><style>.cls-1{fill:#fefefe;}.cls-2{fill:#111;}.cls-3{fill:#fe6633;}.cls-4{fill:#606060;}</style></defs><title>3</title><path class="cls-1" d="M.24,50.28q0-24.52,0-49.06c0-.79.11-1,1-1q49.07,0,98.13,0c.9,0,1,.23,1,1.06q0,49,0,98c0,.82-.11,1.07-1,1.07q-49.06-.06-98.13,0c-.85,0-1-.2-1-1Q.27,74.81.24,50.28Z"/><path class="cls-2" d="M50.49,3.83c.24.23.47.43.68.65,2.32,2.32,4.62,4.65,6.94,7Q76.44,29.78,94.76,48.12c.83.83,2.35,1.55,2.28,2.57s-1.45,1.66-2.27,2.48q-21.7,21.72-43.4,43.48c-.7.7-1,.7-1.7,0Q27.13,74,4.53,51.51c-.71-.71-.7-1,0-1.74Q26.32,28,48.07,6.26c.65-.65,1.29-1.32,1.93-2C50.14,4.14,50.29,4,50.49,3.83Z"/><path class="cls-1" d="M50.31,94.38a6.3,6.3,0,0,0-.64-.93Q39.13,82.88,28.55,72.32T7.67,51.47c-.65-.64-.7-1,0-1.65q21-21,42-42c.73-.73,1-.65,1.73,0q20.91,21,41.91,41.91c.69.69.73,1,0,1.73q-21,21-42,42C51,93.72,50.77,94,50.31,94.38Z"/><path class="cls-3" d="M62.93,44.53c.2,2.7-1.3,5.15-2.88,7.58-2.35,3.62-4.67,7.25-7,10.88-.13.2-.25.41-.39.61-.91,1.3-1.57,1.31-2.43,0-1.27-1.94-2.51-3.89-3.75-5.85-1.77-2.8-3.66-5.53-5.26-8.43A11.42,11.42,0,0,1,46.07,33.9a11.61,11.61,0,0,1,15.51,4.74A10.87,10.87,0,0,1,62.93,44.53Z"/><path class="cls-3" d="M51.81,68.31c-4.52,0-8.65-.37-12.52-2.14a7.75,7.75,0,0,1-2.63-1.83,3.15,3.15,0,0,1,.05-4.53c1.66-1.78,3.91-2.39,6.13-3.06.57-.18.65.3.85.61l4.6,7.16c1.71,2.67,4.64,2.64,6.36-.07,1.51-2.39,3.05-4.77,4.57-7.16.22-.34.34-.69.9-.52a14.54,14.54,0,0,1,5.6,2.58,3.36,3.36,0,0,1-.08,5.54c-2.35,1.9-5.21,2.49-8.09,3A46.89,46.89,0,0,1,51.81,68.31Z"/><path class="cls-4" d="M51.08,91.08c-.11.1-.23.27-.39.32a.38.38,0,0,1-.44-.3c-.08-.29.18-.28.36-.29S51,90.73,51.08,91.08Z"/><path class="cls-1" d="M46.25,44.17a5.21,5.21,0,1,1,5.18,5.18A5.24,5.24,0,0,1,46.25,44.17Z"/></svg>