<svg id="Layer_1" data-name="Layer 1" xmlns="http://www.w3.org/2000/svg" viewBox="0 0 21.75 21.75"><defs><style>.cls-1{fill:#fff;}</style></defs><title>call-white</title><path class="cls-1" d="M16.67,20.25a5.54,5.54,0,0,1-2.07-.19A12.13,12.13,0,0,1,13,19.52,19.88,19.88,0,0,1,2.24,8.71a9.38,9.38,0,0,1-.7-3.47C1.52,3.69,4.07,1,5,1.55a19.08,19.08,0,0,1,3.9,3.88C9,5.62,8.51,6.64,8.08,7,6.83,8.11,7,9.17,7.95,10.29a34.94,34.94,0,0,0,2.74,2.92c1.38,1.24,2.81,2.25,4.45.17a2.09,2.09,0,0,1,2-.12A12.72,12.72,0,0,1,20,16c.82,1.11-1,3.63-2.91,4.13A2.86,2.86,0,0,1,16.67,20.25Z"/></svg>