<svg id="Layer_1" data-name="Layer 1" xmlns="http://www.w3.org/2000/svg" viewBox="0 0 21.75 21.75"><defs><style>.cls-1{fill:#fff;}</style></defs><title>email-white</title><path class="cls-1" d="M20,5,18.89,6l-7,6.43a1.5,1.5,0,0,1-2.09,0L9.4,12,1.83,5.11,1.69,5a1.74,1.74,0,0,1,.93-.44l.35,0H18.72a1.89,1.89,0,0,1,1.15.36L20,5Z"/><path class="cls-1" d="M20.18,16.6a1.75,1.75,0,0,1-1.14.6l-.35,0H3a2,2,0,0,1-1.16-.32l-.1-.08,0,0,6.43-5,.44.4.86.79a2.14,2.14,0,0,0,2.89,0l1.33-1.23Z"/><path class="cls-1" d="M1.34,16.35c0-.21-.09-.38-.12-.56a1.57,1.57,0,0,1,0-.26q0-4.64,0-9.27a1.68,1.68,0,0,1,.15-.78l6.3,5.83Z"/><path class="cls-1" d="M14.12,11.27l6.22-5.79a1.33,1.33,0,0,1,.18.6c0,.13,0,.26,0,.39q0,4.46,0,8.91c0,.22,0,.45,0,.67l0,0Z"/></svg>