<svg xmlns="http://www.w3.org/2000/svg" xmlns:xlink="http://www.w3.org/1999/xlink" viewBox="0 0 308 311"><defs><style>.cls-1,.cls-2{fill-rule:evenodd;}.cls-1{fill:url(#Degradado_sin_nombre_13);}.cls-2{fill:#fff;}</style><linearGradient id="Degradado_sin_nombre_13" x1="155.63" y1="25.75" x2="155.63" y2="271.86" gradientUnits="userSpaceOnUse"><stop offset="0" stop-color="#4ac14b"/><stop offset="1" stop-color="#06853a"/></linearGradient></defs><title>whatsapp</title><g id="OBJECTS"><path class="cls-1" d="M155.64,25.75c-68.4,0-124,55.19-124,123.06A121.75,121.75,0,0,0,55.24,221L39.75,266.65,87.4,251.51a124,124,0,0,0,68.24,20.35c68.37,0,124-55.2,124-123S224,25.75,155.64,25.75Z"/><path class="cls-2" d="M295.44,147.75c0,77-62.91,139.44-140.52,139.44A140.67,140.67,0,0,1,87,269.84L9.17,294.57l25.37-74.81a138,138,0,0,1-20.16-72c0-77,62.91-139.45,140.54-139.45S295.44,70.74,295.44,147.75ZM154.92,30.51C89.75,30.51,36.76,83.1,36.76,147.75a116,116,0,0,0,22.5,68.74L44.51,260l45.4-14.43a118.1,118.1,0,0,0,65,19.38c65.13,0,118.14-52.58,118.14-117.23s-53-117.24-118.14-117.24Zm71,149.36c-.87-1.43-3.17-2.28-6.6-4s-20.39-10-23.55-11.12-5.46-1.71-7.75,1.71-8.9,11.12-10.91,13.4-4,2.57-7.46.86-14.56-5.33-27.71-17a104,104,0,0,1-19.17-23.67c-2-3.42-.19-5.27,1.51-7,1.56-1.54,3.45-4,5.17-6a23.5,23.5,0,0,0,3.45-5.72,6.21,6.21,0,0,0-.29-6c-.86-1.71-7.75-18.53-10.63-25.38s-5.73-6.57-7.75-6.57a50.14,50.14,0,0,0-5.72.59s-6.9.86-10.06,4.28-12,11.69-12,28.5,12.34,33.07,14.06,35.34,23.82,37.93,58.85,51.61,35,9.12,41.34,8.54,20.37-8.26,23.25-16.24,2.87-14.83,2-16.25Zm0,0"/></g></svg>