<svg id="Layer_1" data-name="Layer 1" xmlns="http://www.w3.org/2000/svg" viewBox="0 0 100 100"><defs><style>.cls-1{fill:#fff;}.cls-2{opacity:0.48;}.cls-3{fill:#fe6633;}.cls-4{fill:#fefefe;}</style></defs><title>4</title><circle class="cls-1" cx="48.53" cy="49.25" r="39.08"/><g class="cls-2"><path class="cls-1" d="M43.63.29C42.74.4,41.86.54,41,.7a1.68,1.68,0,0,0,1.17.48A1.67,1.67,0,0,0,43.63.29Z"/><path class="cls-1" d="M50,1.18A1.68,1.68,0,0,0,51.66-.09L50-.12c-.55,0-1.09,0-1.62,0A1.66,1.66,0,0,0,50,1.18Z"/><path class="cls-1" d="M57.92,1.18A1.68,1.68,0,0,0,59.08.7C58.21.54,57.33.4,56.45.29A1.66,1.66,0,0,0,57.92,1.18Z"/><path class="cls-1" d="M26.4,6.23a1.68,1.68,0,1,0,1.68,1.68A1.68,1.68,0,0,0,26.4,6.23Z"/><path class="cls-1" d="M34.28,6.23A1.68,1.68,0,1,0,36,7.91,1.68,1.68,0,0,0,34.28,6.23Z"/><path class="cls-1" d="M42.16,6.23a1.68,1.68,0,1,0,1.68,1.68A1.68,1.68,0,0,0,42.16,6.23Z"/><path class="cls-1" d="M50,6.23a1.68,1.68,0,1,0,1.67,1.68A1.68,1.68,0,0,0,50,6.23Z"/><path class="cls-1" d="M57.92,6.23a1.68,1.68,0,1,0,1.67,1.68A1.68,1.68,0,0,0,57.92,6.23Z"/><path class="cls-1" d="M65.79,6.23a1.68,1.68,0,1,0,1.68,1.68A1.68,1.68,0,0,0,65.79,6.23Z"/><path class="cls-1" d="M73.67,6.23a1.68,1.68,0,1,0,1.68,1.68A1.68,1.68,0,0,0,73.67,6.23Z"/><circle class="cls-1" cx="18.52" cy="16.31" r="1.68"/><circle class="cls-1" cx="26.4" cy="16.31" r="1.68"/><circle class="cls-1" cx="34.28" cy="16.31" r="1.68"/><path class="cls-1" d="M42.16,14.64a1.68,1.68,0,1,0,1.68,1.67A1.68,1.68,0,0,0,42.16,14.64Z"/><circle class="cls-1" cx="50.04" cy="16.31" r="1.68"/><circle class="cls-1" cx="57.92" cy="16.31" r="1.68"/><circle class="cls-1" cx="65.79" cy="16.31" r="1.68"/><path class="cls-1" d="M73.67,14.64a1.68,1.68,0,1,0,1.68,1.67A1.67,1.67,0,0,0,73.67,14.64Z"/><path class="cls-1" d="M81.55,14.64a1.68,1.68,0,1,0,1.68,1.67A1.68,1.68,0,0,0,81.55,14.64Z"/><circle class="cls-1" cx="10.64" cy="24.72" r="1.68"/><circle class="cls-1" cx="18.52" cy="24.72" r="1.68"/><circle class="cls-1" cx="26.4" cy="24.72" r="1.68"/><circle class="cls-1" cx="34.28" cy="24.72" r="1.68"/><path class="cls-1" d="M42.16,23a1.68,1.68,0,1,0,1.68,1.68A1.68,1.68,0,0,0,42.16,23Z"/><circle class="cls-1" cx="50.04" cy="24.72" r="1.68"/><circle class="cls-1" cx="57.92" cy="24.72" r="1.68"/><circle class="cls-1" cx="65.79" cy="24.72" r="1.68"/><path class="cls-1" d="M73.67,23a1.68,1.68,0,1,0,1.68,1.68A1.68,1.68,0,0,0,73.67,23Z"/><path class="cls-1" d="M81.55,23a1.68,1.68,0,1,0,1.68,1.68A1.68,1.68,0,0,0,81.55,23Z"/><path class="cls-1" d="M89.43,23a1.68,1.68,0,1,0,1.68,1.68A1.68,1.68,0,0,0,89.43,23Z"/><path class="cls-1" d="M4.44,33.13a1.68,1.68,0,0,0-1-1.53c-.41,1-.78,2.08-1.12,3.14a1.55,1.55,0,0,0,.43.07A1.68,1.68,0,0,0,4.44,33.13Z"/><circle class="cls-1" cx="10.64" cy="33.13" r="1.68"/><circle class="cls-1" cx="18.52" cy="33.13" r="1.68"/><circle class="cls-1" cx="26.4" cy="33.13" r="1.68"/><circle class="cls-1" cx="34.28" cy="33.13" r="1.68"/><path class="cls-1" d="M42.16,31.45a1.68,1.68,0,1,0,1.68,1.68A1.68,1.68,0,0,0,42.16,31.45Z"/><circle class="cls-1" cx="50.04" cy="33.13" r="1.68"/><circle class="cls-1" cx="57.92" cy="33.13" r="1.68"/><circle class="cls-1" cx="65.79" cy="33.13" r="1.68"/><path class="cls-1" d="M73.67,31.45a1.68,1.68,0,1,0,1.68,1.68A1.68,1.68,0,0,0,73.67,31.45Z"/><path class="cls-1" d="M81.55,31.45a1.68,1.68,0,1,0,1.68,1.68A1.68,1.68,0,0,0,81.55,31.45Z"/><path class="cls-1" d="M89.43,31.45a1.68,1.68,0,1,0,1.68,1.68A1.68,1.68,0,0,0,89.43,31.45Z"/><path class="cls-1" d="M95.63,33.13a1.68,1.68,0,0,0,1.68,1.68,1.55,1.55,0,0,0,.43-.07c-.34-1.06-.71-2.11-1.11-3.14A1.67,1.67,0,0,0,95.63,33.13Z"/><path class="cls-1" d="M2.76,39.86a1.68,1.68,0,1,0,1.68,1.67A1.68,1.68,0,0,0,2.76,39.86Z"/><path class="cls-1" d="M10.64,39.86a1.68,1.68,0,1,0,1.68,1.67A1.68,1.68,0,0,0,10.64,39.86Z"/><path class="cls-1" d="M18.52,39.86a1.68,1.68,0,1,0,1.68,1.67A1.68,1.68,0,0,0,18.52,39.86Z"/><path class="cls-1" d="M26.4,39.86a1.68,1.68,0,1,0,1.68,1.67A1.68,1.68,0,0,0,26.4,39.86Z"/><path class="cls-1" d="M34.28,39.86A1.68,1.68,0,1,0,36,41.53,1.68,1.68,0,0,0,34.28,39.86Z"/><path class="cls-1" d="M42.16,39.86a1.68,1.68,0,1,0,1.68,1.67A1.68,1.68,0,0,0,42.16,39.86Z"/><path class="cls-1" d="M50,39.86a1.68,1.68,0,1,0,1.67,1.67A1.68,1.68,0,0,0,50,39.86Z"/><path class="cls-1" d="M57.92,39.86a1.68,1.68,0,1,0,1.67,1.67A1.68,1.68,0,0,0,57.92,39.86Z"/><path class="cls-1" d="M65.79,39.86a1.68,1.68,0,1,0,1.68,1.67A1.67,1.67,0,0,0,65.79,39.86Z"/><path class="cls-1" d="M73.67,39.86a1.68,1.68,0,1,0,1.68,1.67A1.67,1.67,0,0,0,73.67,39.86Z"/><path class="cls-1" d="M81.55,39.86a1.68,1.68,0,1,0,1.68,1.67A1.68,1.68,0,0,0,81.55,39.86Z"/><path class="cls-1" d="M89.43,39.86a1.68,1.68,0,1,0,1.68,1.67A1.68,1.68,0,0,0,89.43,39.86Z"/><path class="cls-1" d="M97.31,39.86A1.68,1.68,0,1,0,99,41.53,1.68,1.68,0,0,0,97.31,39.86Z"/><path class="cls-1" d="M2.76,48.26a1.68,1.68,0,1,0,1.68,1.68A1.69,1.69,0,0,0,2.76,48.26Z"/><circle class="cls-1" cx="10.64" cy="49.94" r="1.68"/><circle class="cls-1" cx="18.52" cy="49.94" r="1.68"/><circle class="cls-1" cx="26.4" cy="49.94" r="1.68"/><circle class="cls-1" cx="34.28" cy="49.94" r="1.68"/><path class="cls-1" d="M42.16,48.26a1.68,1.68,0,1,0,1.68,1.68A1.68,1.68,0,0,0,42.16,48.26Z"/><circle class="cls-1" cx="50.04" cy="49.94" r="1.68"/><circle class="cls-1" cx="57.92" cy="49.94" r="1.68"/><circle class="cls-1" cx="65.79" cy="49.94" r="1.68"/><path class="cls-1" d="M73.67,48.26a1.68,1.68,0,1,0,1.68,1.68A1.68,1.68,0,0,0,73.67,48.26Z"/><path class="cls-1" d="M81.55,48.26a1.68,1.68,0,1,0,1.68,1.68A1.69,1.69,0,0,0,81.55,48.26Z"/><path class="cls-1" d="M89.43,48.26a1.68,1.68,0,1,0,1.68,1.68A1.68,1.68,0,0,0,89.43,48.26Z"/><circle class="cls-1" cx="97.31" cy="49.94" r="1.68"/><path class="cls-1" d="M2.76,56.67a1.68,1.68,0,1,0,1.68,1.68A1.68,1.68,0,0,0,2.76,56.67Z"/><circle class="cls-1" cx="10.64" cy="58.35" r="1.68"/><circle class="cls-1" cx="18.52" cy="58.35" r="1.68"/><circle class="cls-1" cx="26.4" cy="58.35" r="1.68"/><circle class="cls-1" cx="34.28" cy="58.35" r="1.68"/><path class="cls-1" d="M42.16,56.67a1.68,1.68,0,1,0,1.68,1.68A1.68,1.68,0,0,0,42.16,56.67Z"/><circle class="cls-1" cx="50.04" cy="58.35" r="1.68"/><circle class="cls-1" cx="57.92" cy="58.35" r="1.68"/><circle class="cls-1" cx="65.79" cy="58.35" r="1.68"/><path class="cls-1" d="M73.67,56.67a1.68,1.68,0,1,0,1.68,1.68A1.68,1.68,0,0,0,73.67,56.67Z"/><path class="cls-1" d="M81.55,56.67a1.68,1.68,0,1,0,1.68,1.68A1.68,1.68,0,0,0,81.55,56.67Z"/><path class="cls-1" d="M89.43,56.67a1.68,1.68,0,1,0,1.68,1.68A1.68,1.68,0,0,0,89.43,56.67Z"/><circle class="cls-1" cx="97.31" cy="58.35" r="1.68"/><path class="cls-1" d="M4.44,66.76a1.68,1.68,0,0,0-1.68-1.68,2,2,0,0,0-.43.06c.34,1.07.71,2.11,1.12,3.15A1.69,1.69,0,0,0,4.44,66.76Z"/><path class="cls-1" d="M10.64,65.08a1.68,1.68,0,1,0,1.68,1.68A1.68,1.68,0,0,0,10.64,65.08Z"/><path class="cls-1" d="M18.52,65.08a1.68,1.68,0,1,0,1.68,1.68A1.68,1.68,0,0,0,18.52,65.08Z"/><path class="cls-1" d="M26.4,65.08a1.68,1.68,0,1,0,1.68,1.68A1.68,1.68,0,0,0,26.4,65.08Z"/><path class="cls-1" d="M34.28,65.08A1.68,1.68,0,1,0,36,66.76,1.68,1.68,0,0,0,34.28,65.08Z"/><path class="cls-1" d="M42.16,65.08a1.68,1.68,0,1,0,1.68,1.68A1.68,1.68,0,0,0,42.16,65.08Z"/><path class="cls-1" d="M50,65.08a1.68,1.68,0,1,0,1.67,1.68A1.68,1.68,0,0,0,50,65.08Z"/><path class="cls-1" d="M57.92,65.08a1.68,1.68,0,1,0,1.67,1.68A1.68,1.68,0,0,0,57.92,65.08Z"/><path class="cls-1" d="M65.79,65.08a1.68,1.68,0,1,0,1.68,1.68A1.68,1.68,0,0,0,65.79,65.08Z"/><path class="cls-1" d="M73.67,65.08a1.68,1.68,0,1,0,1.68,1.68A1.68,1.68,0,0,0,73.67,65.08Z"/><path class="cls-1" d="M81.55,65.08a1.68,1.68,0,1,0,1.68,1.68A1.68,1.68,0,0,0,81.55,65.08Z"/><path class="cls-1" d="M89.43,65.08a1.68,1.68,0,1,0,1.68,1.68A1.68,1.68,0,0,0,89.43,65.08Z"/><path class="cls-1" d="M95.63,66.76a1.69,1.69,0,0,0,1,1.53c.4-1,.77-2.08,1.11-3.15a2,2,0,0,0-.43-.06A1.68,1.68,0,0,0,95.63,66.76Z"/><circle class="cls-1" cx="10.64" cy="75.16" r="1.68"/><circle class="cls-1" cx="18.52" cy="75.16" r="1.68"/><circle class="cls-1" cx="26.4" cy="75.16" r="1.68"/><circle class="cls-1" cx="34.28" cy="75.16" r="1.68"/><path class="cls-1" d="M42.16,73.49a1.68,1.68,0,1,0,1.68,1.67A1.68,1.68,0,0,0,42.16,73.49Z"/><circle class="cls-1" cx="50.04" cy="75.16" r="1.68"/><circle class="cls-1" cx="57.92" cy="75.16" r="1.68"/><circle class="cls-1" cx="65.79" cy="75.16" r="1.68"/><path class="cls-1" d="M73.67,73.49a1.68,1.68,0,1,0,1.68,1.67A1.67,1.67,0,0,0,73.67,73.49Z"/><path class="cls-1" d="M81.55,73.49a1.68,1.68,0,1,0,1.68,1.67A1.68,1.68,0,0,0,81.55,73.49Z"/><path class="cls-1" d="M89.43,73.49a1.68,1.68,0,1,0,1.68,1.67A1.68,1.68,0,0,0,89.43,73.49Z"/><circle class="cls-1" cx="18.52" cy="83.57" r="1.68"/><circle class="cls-1" cx="26.4" cy="83.57" r="1.68"/><circle class="cls-1" cx="34.28" cy="83.57" r="1.68"/><path class="cls-1" d="M42.16,81.89a1.68,1.68,0,1,0,1.68,1.68A1.68,1.68,0,0,0,42.16,81.89Z"/><circle class="cls-1" cx="50.04" cy="83.57" r="1.68"/><circle class="cls-1" cx="57.92" cy="83.57" r="1.68"/><circle class="cls-1" cx="65.79" cy="83.57" r="1.68"/><path class="cls-1" d="M73.67,81.89a1.68,1.68,0,1,0,1.68,1.68A1.68,1.68,0,0,0,73.67,81.89Z"/><path class="cls-1" d="M81.55,81.89a1.68,1.68,0,1,0,1.68,1.68A1.68,1.68,0,0,0,81.55,81.89Z"/><circle class="cls-1" cx="26.4" cy="91.98" r="1.68"/><circle class="cls-1" cx="34.28" cy="91.98" r="1.68"/><path class="cls-1" d="M42.16,90.3A1.68,1.68,0,1,0,43.84,92,1.68,1.68,0,0,0,42.16,90.3Z"/><circle class="cls-1" cx="50.04" cy="91.98" r="1.68"/><circle class="cls-1" cx="57.92" cy="91.98" r="1.68"/><circle class="cls-1" cx="65.79" cy="91.98" r="1.68"/><path class="cls-1" d="M73.67,90.3A1.68,1.68,0,1,0,75.35,92,1.68,1.68,0,0,0,73.67,90.3Z"/><path class="cls-1" d="M42.16,98.71a1.67,1.67,0,0,0-1.17.47c.87.16,1.75.3,2.64.41A1.68,1.68,0,0,0,42.16,98.71Z"/><path class="cls-1" d="M50,98.71A1.67,1.67,0,0,0,48.42,100q.8,0,1.62,0t1.62,0A1.68,1.68,0,0,0,50,98.71Z"/><path class="cls-1" d="M56.45,99.59c.88-.11,1.76-.25,2.63-.41a1.67,1.67,0,0,0-2.63.41Z"/></g><path class="cls-3" d="M49.63,26.36h1.54a4.07,4.07,0,0,1,2.76,1.38c.67.64,1.39,1.25,2.1,1.86a.89.89,0,0,0,.63.21c1.58-.12,3.16-.22,4.74-.38a4.35,4.35,0,0,1,4.71,3.1c.4,1.28.66,2.61,1,3.92a1.38,1.38,0,0,0,.72,1c1.35.78,2.68,1.59,4,2.4a3.53,3.53,0,0,1,1.9,3v1.46c-.14,1.63-1,3-1.57,4.5a1.85,1.85,0,0,0,0,1.59c.47,1,.83,2,1.27,3a8.9,8.9,0,0,1,.34,1.53v1.55a3.62,3.62,0,0,1-2,3l-1.48.88L67.65,61.9a1.15,1.15,0,0,0-.55.78c-.29,1.25-.58,2.51-.9,3.75A4.27,4.27,0,0,1,62,69.79a23.94,23.94,0,0,1-2.67-.18c-.87-.07-1.75-.12-2.62-.21a.94.94,0,0,0-.77.31c-.91.78-1.8,1.58-2.69,2.37a3.49,3.49,0,0,1-2.27.86,11.64,11.64,0,0,1-1.77-.06,3.65,3.65,0,0,1-2-1.13c-.8-.72-1.62-1.42-2.42-2.13a.81.81,0,0,0-.67-.22c-1.31.14-2.62.22-3.93.31a5.56,5.56,0,0,1-3.12-.33,4.4,4.4,0,0,1-2.39-2.93c-.31-1.24-.61-2.47-.89-3.71a1.33,1.33,0,0,0-.7-.94c-1.31-.76-2.61-1.54-3.9-2.32a5.25,5.25,0,0,1-1.29-1.06,3.7,3.7,0,0,1-.8-2.31A7.62,7.62,0,0,1,28,52.3c.31-.67.54-1.38.86-2a1.49,1.49,0,0,0,0-1.35c-.47-1.06-.93-2.14-1.34-3.23a6.12,6.12,0,0,1-.13-3.83,3.63,3.63,0,0,1,1.86-2.09c1.19-.72,2.39-1.43,3.59-2.13a1.27,1.27,0,0,0,.6-.76c.48-1.5.95-3,1.44-4.5a4.45,4.45,0,0,1,4.8-2.92c1,.13,1.93.17,2.89.24.56,0,1.11.11,1.68.12a1,1,0,0,0,.7-.22c.72-.6,1.42-1.23,2.11-1.87A4,4,0,0,1,49.63,26.36Z"/><path class="cls-4" d="M49.63,26.36c-1.66.46-2.7,1.8-4,2.83l0,0c-1,.92-1,.91-2.36.77s-2.7-.27-4.06-.35a4.18,4.18,0,0,0-4.26,3c-.4,1.54-1,3-1.45,4.55a.83.83,0,0,1-.41.49L29.24,40a4,4,0,0,0-1.79,5.07c.54,1.39,1.12,2.76,1.7,4.13a1,1,0,0,1,0,.86c-.56,1.32-1.1,2.64-1.64,4a4.09,4.09,0,0,0,1.74,5.25c1.42.86,2.85,1.7,4.28,2.54a.76.76,0,0,1,.41.54c.33,1.43.67,2.86,1.06,4.28a4,4,0,0,0,4.19,2.94l4.88-.38a1.15,1.15,0,0,1,.94.31c.91.85,1.85,1.66,2.79,2.46a4.06,4.06,0,0,0,5.31,0c.91-.78,1.83-1.55,2.69-2.37A1.39,1.39,0,0,1,57,69.19c1,.1,2,.18,3,.25a18.24,18.24,0,0,0,2.22.11A4.07,4.07,0,0,0,66,66.33c.31-1.34.67-2.67,1-4a.71.71,0,0,1,.36-.48c1.38-.82,2.76-1.66,4.16-2.47a4.24,4.24,0,0,0,2.17-2.86s0,0,.07,0c0,5.39,0,10.78,0,16.18,0,.31-.06.37-.37.37q-22.95,0-45.9,0c-.31,0-.37-.06-.37-.37q0-23,0-45.91c0-.31.06-.37.37-.37Z"/><path class="cls-4" d="M73.72,42.81a8.46,8.46,0,0,0-.56-1.36,4.54,4.54,0,0,0-1.58-1.53L67.34,37.4a.72.72,0,0,1-.38-.51c-.34-1.44-.67-2.89-1.07-4.32a4.14,4.14,0,0,0-4.63-2.9c-.94.15-1.9.16-2.84.23l-1.9.16a.51.51,0,0,1-.48-.15c-.83-.75-1.69-1.47-2.51-2.24a5.51,5.51,0,0,0-2.36-1.31H73.35c.31,0,.38.06.37.37C73.71,32.09,73.72,37.45,73.72,42.81Z"/><path class="cls-4" d="M73.72,54.9c-.68-1.68-1.35-3.36-2-5a.75.75,0,0,1,0-.64l1.56-3.79c.16-.39.28-.78.43-1.17Z"/><path class="cls-4" d="M35.45,49.58a15,15,0,1,1,14.94,15A15,15,0,0,1,35.45,49.58Z"/><path class="cls-3" d="M50.45,37.36A12.29,12.29,0,1,1,38.17,49.07,12.32,12.32,0,0,1,50.45,37.36Z"/><path class="cls-4" d="M58.61,45.51A1.74,1.74,0,0,1,58,46.66q-3.57,3.54-7.1,7.09c-.32.31-.62.63-.94.93a1.27,1.27,0,0,1-1.83,0Q45.41,52,42.68,49.19a1.33,1.33,0,0,1,1.88-1.87c1.41,1.39,2.82,2.8,4.21,4.21.24.25.37.26.63,0C51.67,49.24,54,47,56.23,44.69a1.33,1.33,0,0,1,2.06,0A1.7,1.7,0,0,1,58.61,45.51Z"/></svg>