<svg id="Layer_1" data-name="Layer 1" xmlns="http://www.w3.org/2000/svg" viewBox="0 0 100 100"><defs><style>.cls-1{fill:#fff;}.cls-2{opacity:0.48;}.cls-3{fill:#fefefe;}.cls-4{fill:#fe6633;}.cls-5{fill:#c36343;}.cls-6{fill:#c16647;}.cls-7{fill:#d15e37;}.cls-8{fill:#c16748;}.cls-9{fill:#ce5e38;}.cls-10{fill:#d15d37;}.cls-11{fill:#e15d31;}.cls-12{fill:#e25d31;}.cls-13{fill:#c7603d;}.cls-14{fill:#c46545;}.cls-15{fill:#cf5d36;}.cls-16{fill:#ce5f39;}.cls-17{fill:#d65d34;}.cls-18{fill:#cf5f3a;}.cls-19{fill:#ca5f3b;}.cls-20{fill:#c95f3c;}.cls-21{fill:#ce5f3a;}.cls-22{fill:#e75e31;}.cls-23{fill:#cb5f3b;}.cls-24{fill:#e95f31;}.cls-25{fill:#c26647;}.cls-26{fill:#cd5e38;}.cls-27{fill:#cd623e;}</style></defs><title>5</title><circle class="cls-1" cx="48.53" cy="49.25" r="39.08"/><g class="cls-2"><path class="cls-1" d="M43.63.29C42.74.4,41.86.54,41,.7a1.68,1.68,0,0,0,1.17.48A1.67,1.67,0,0,0,43.63.29Z"/><path class="cls-1" d="M50,1.18A1.68,1.68,0,0,0,51.66-.09L50-.12c-.55,0-1.09,0-1.62,0A1.66,1.66,0,0,0,50,1.18Z"/><path class="cls-1" d="M57.92,1.18A1.68,1.68,0,0,0,59.08.7C58.21.54,57.33.4,56.45.29A1.66,1.66,0,0,0,57.92,1.18Z"/><path class="cls-1" d="M26.4,6.23a1.68,1.68,0,1,0,1.68,1.68A1.68,1.68,0,0,0,26.4,6.23Z"/><path class="cls-1" d="M34.28,6.23A1.68,1.68,0,1,0,36,7.91,1.68,1.68,0,0,0,34.28,6.23Z"/><path class="cls-1" d="M42.16,6.23a1.68,1.68,0,1,0,1.68,1.68A1.68,1.68,0,0,0,42.16,6.23Z"/><path class="cls-1" d="M50,6.23a1.68,1.68,0,1,0,1.67,1.68A1.68,1.68,0,0,0,50,6.23Z"/><path class="cls-1" d="M57.92,6.23a1.68,1.68,0,1,0,1.67,1.68A1.68,1.68,0,0,0,57.92,6.23Z"/><path class="cls-1" d="M65.79,6.23a1.68,1.68,0,1,0,1.68,1.68A1.68,1.68,0,0,0,65.79,6.23Z"/><path class="cls-1" d="M73.67,6.23a1.68,1.68,0,1,0,1.68,1.68A1.68,1.68,0,0,0,73.67,6.23Z"/><circle class="cls-1" cx="18.52" cy="16.31" r="1.68"/><circle class="cls-1" cx="26.4" cy="16.31" r="1.68"/><circle class="cls-1" cx="34.28" cy="16.31" r="1.68"/><path class="cls-1" d="M42.16,14.64a1.68,1.68,0,1,0,1.68,1.67A1.68,1.68,0,0,0,42.16,14.64Z"/><circle class="cls-1" cx="50.04" cy="16.31" r="1.68"/><circle class="cls-1" cx="57.92" cy="16.31" r="1.68"/><circle class="cls-1" cx="65.79" cy="16.31" r="1.68"/><path class="cls-1" d="M73.67,14.64a1.68,1.68,0,1,0,1.68,1.67A1.67,1.67,0,0,0,73.67,14.64Z"/><path class="cls-1" d="M81.55,14.64a1.68,1.68,0,1,0,1.68,1.67A1.68,1.68,0,0,0,81.55,14.64Z"/><circle class="cls-1" cx="10.64" cy="24.72" r="1.68"/><circle class="cls-1" cx="18.52" cy="24.72" r="1.68"/><circle class="cls-1" cx="26.4" cy="24.72" r="1.68"/><circle class="cls-1" cx="34.28" cy="24.72" r="1.68"/><path class="cls-1" d="M42.16,23a1.68,1.68,0,1,0,1.68,1.68A1.68,1.68,0,0,0,42.16,23Z"/><circle class="cls-1" cx="50.04" cy="24.72" r="1.68"/><circle class="cls-1" cx="57.92" cy="24.72" r="1.68"/><circle class="cls-1" cx="65.79" cy="24.72" r="1.68"/><path class="cls-1" d="M73.67,23a1.68,1.68,0,1,0,1.68,1.68A1.68,1.68,0,0,0,73.67,23Z"/><path class="cls-1" d="M81.55,23a1.68,1.68,0,1,0,1.68,1.68A1.68,1.68,0,0,0,81.55,23Z"/><path class="cls-1" d="M89.43,23a1.68,1.68,0,1,0,1.68,1.68A1.68,1.68,0,0,0,89.43,23Z"/><path class="cls-1" d="M4.44,33.13a1.68,1.68,0,0,0-1-1.53c-.41,1-.78,2.08-1.12,3.14a1.55,1.55,0,0,0,.43.07A1.68,1.68,0,0,0,4.44,33.13Z"/><circle class="cls-1" cx="10.64" cy="33.13" r="1.68"/><circle class="cls-1" cx="18.52" cy="33.13" r="1.68"/><circle class="cls-1" cx="26.4" cy="33.13" r="1.68"/><circle class="cls-1" cx="34.28" cy="33.13" r="1.68"/><path class="cls-1" d="M42.16,31.45a1.68,1.68,0,1,0,1.68,1.68A1.68,1.68,0,0,0,42.16,31.45Z"/><circle class="cls-1" cx="50.04" cy="33.13" r="1.68"/><circle class="cls-1" cx="57.92" cy="33.13" r="1.68"/><circle class="cls-1" cx="65.79" cy="33.13" r="1.68"/><path class="cls-1" d="M73.67,31.45a1.68,1.68,0,1,0,1.68,1.68A1.68,1.68,0,0,0,73.67,31.45Z"/><path class="cls-1" d="M81.55,31.45a1.68,1.68,0,1,0,1.68,1.68A1.68,1.68,0,0,0,81.55,31.45Z"/><path class="cls-1" d="M89.43,31.45a1.68,1.68,0,1,0,1.68,1.68A1.68,1.68,0,0,0,89.43,31.45Z"/><path class="cls-1" d="M95.63,33.13a1.68,1.68,0,0,0,1.68,1.68,1.55,1.55,0,0,0,.43-.07c-.34-1.06-.71-2.11-1.11-3.14A1.67,1.67,0,0,0,95.63,33.13Z"/><path class="cls-1" d="M2.76,39.86a1.68,1.68,0,1,0,1.68,1.67A1.68,1.68,0,0,0,2.76,39.86Z"/><path class="cls-1" d="M10.64,39.86a1.68,1.68,0,1,0,1.68,1.67A1.68,1.68,0,0,0,10.64,39.86Z"/><path class="cls-1" d="M18.52,39.86a1.68,1.68,0,1,0,1.68,1.67A1.68,1.68,0,0,0,18.52,39.86Z"/><path class="cls-1" d="M26.4,39.86a1.68,1.68,0,1,0,1.68,1.67A1.68,1.68,0,0,0,26.4,39.86Z"/><path class="cls-1" d="M34.28,39.86A1.68,1.68,0,1,0,36,41.53,1.68,1.68,0,0,0,34.28,39.86Z"/><path class="cls-1" d="M42.16,39.86a1.68,1.68,0,1,0,1.68,1.67A1.68,1.68,0,0,0,42.16,39.86Z"/><path class="cls-1" d="M50,39.86a1.68,1.68,0,1,0,1.67,1.67A1.68,1.68,0,0,0,50,39.86Z"/><path class="cls-1" d="M57.92,39.86a1.68,1.68,0,1,0,1.67,1.67A1.68,1.68,0,0,0,57.92,39.86Z"/><path class="cls-1" d="M65.79,39.86a1.68,1.68,0,1,0,1.68,1.67A1.67,1.67,0,0,0,65.79,39.86Z"/><path class="cls-1" d="M73.67,39.86a1.68,1.68,0,1,0,1.68,1.67A1.67,1.67,0,0,0,73.67,39.86Z"/><path class="cls-1" d="M81.55,39.86a1.68,1.68,0,1,0,1.68,1.67A1.68,1.68,0,0,0,81.55,39.86Z"/><path class="cls-1" d="M89.43,39.86a1.68,1.68,0,1,0,1.68,1.67A1.68,1.68,0,0,0,89.43,39.86Z"/><path class="cls-1" d="M97.31,39.86A1.68,1.68,0,1,0,99,41.53,1.68,1.68,0,0,0,97.31,39.86Z"/><path class="cls-1" d="M2.76,48.26a1.68,1.68,0,1,0,1.68,1.68A1.69,1.69,0,0,0,2.76,48.26Z"/><circle class="cls-1" cx="10.64" cy="49.94" r="1.68"/><circle class="cls-1" cx="18.52" cy="49.94" r="1.68"/><circle class="cls-1" cx="26.4" cy="49.94" r="1.68"/><circle class="cls-1" cx="34.28" cy="49.94" r="1.68"/><path class="cls-1" d="M42.16,48.26a1.68,1.68,0,1,0,1.68,1.68A1.68,1.68,0,0,0,42.16,48.26Z"/><circle class="cls-1" cx="50.04" cy="49.94" r="1.68"/><circle class="cls-1" cx="57.92" cy="49.94" r="1.68"/><circle class="cls-1" cx="65.79" cy="49.94" r="1.68"/><path class="cls-1" d="M73.67,48.26a1.68,1.68,0,1,0,1.68,1.68A1.68,1.68,0,0,0,73.67,48.26Z"/><path class="cls-1" d="M81.55,48.26a1.68,1.68,0,1,0,1.68,1.68A1.69,1.69,0,0,0,81.55,48.26Z"/><path class="cls-1" d="M89.43,48.26a1.68,1.68,0,1,0,1.68,1.68A1.68,1.68,0,0,0,89.43,48.26Z"/><circle class="cls-1" cx="97.31" cy="49.94" r="1.68"/><path class="cls-1" d="M2.76,56.67a1.68,1.68,0,1,0,1.68,1.68A1.68,1.68,0,0,0,2.76,56.67Z"/><circle class="cls-1" cx="10.64" cy="58.35" r="1.68"/><circle class="cls-1" cx="18.52" cy="58.35" r="1.68"/><circle class="cls-1" cx="26.4" cy="58.35" r="1.68"/><circle class="cls-1" cx="34.28" cy="58.35" r="1.68"/><path class="cls-1" d="M42.16,56.67a1.68,1.68,0,1,0,1.68,1.68A1.68,1.68,0,0,0,42.16,56.67Z"/><circle class="cls-1" cx="50.04" cy="58.35" r="1.68"/><circle class="cls-1" cx="57.92" cy="58.35" r="1.68"/><circle class="cls-1" cx="65.79" cy="58.35" r="1.68"/><path class="cls-1" d="M73.67,56.67a1.68,1.68,0,1,0,1.68,1.68A1.68,1.68,0,0,0,73.67,56.67Z"/><path class="cls-1" d="M81.55,56.67a1.68,1.68,0,1,0,1.68,1.68A1.68,1.68,0,0,0,81.55,56.67Z"/><path class="cls-1" d="M89.43,56.67a1.68,1.68,0,1,0,1.68,1.68A1.68,1.68,0,0,0,89.43,56.67Z"/><circle class="cls-1" cx="97.31" cy="58.35" r="1.68"/><path class="cls-1" d="M4.44,66.76a1.68,1.68,0,0,0-1.68-1.68,2,2,0,0,0-.43.06c.34,1.07.71,2.11,1.12,3.15A1.69,1.69,0,0,0,4.44,66.76Z"/><path class="cls-1" d="M10.64,65.08a1.68,1.68,0,1,0,1.68,1.68A1.68,1.68,0,0,0,10.64,65.08Z"/><path class="cls-1" d="M18.52,65.08a1.68,1.68,0,1,0,1.68,1.68A1.68,1.68,0,0,0,18.52,65.08Z"/><path class="cls-1" d="M26.4,65.08a1.68,1.68,0,1,0,1.68,1.68A1.68,1.68,0,0,0,26.4,65.08Z"/><path class="cls-1" d="M34.28,65.08A1.68,1.68,0,1,0,36,66.76,1.68,1.68,0,0,0,34.28,65.08Z"/><path class="cls-1" d="M42.16,65.08a1.68,1.68,0,1,0,1.68,1.68A1.68,1.68,0,0,0,42.16,65.08Z"/><path class="cls-1" d="M50,65.08a1.68,1.68,0,1,0,1.67,1.68A1.68,1.68,0,0,0,50,65.08Z"/><path class="cls-1" d="M57.92,65.08a1.68,1.68,0,1,0,1.67,1.68A1.68,1.68,0,0,0,57.92,65.08Z"/><path class="cls-1" d="M65.79,65.08a1.68,1.68,0,1,0,1.68,1.68A1.68,1.68,0,0,0,65.79,65.08Z"/><path class="cls-1" d="M73.67,65.08a1.68,1.68,0,1,0,1.68,1.68A1.68,1.68,0,0,0,73.67,65.08Z"/><path class="cls-1" d="M81.55,65.08a1.68,1.68,0,1,0,1.68,1.68A1.68,1.68,0,0,0,81.55,65.08Z"/><path class="cls-1" d="M89.43,65.08a1.68,1.68,0,1,0,1.68,1.68A1.68,1.68,0,0,0,89.43,65.08Z"/><path class="cls-1" d="M95.63,66.76a1.69,1.69,0,0,0,1,1.53c.4-1,.77-2.08,1.11-3.15a2,2,0,0,0-.43-.06A1.68,1.68,0,0,0,95.63,66.76Z"/><circle class="cls-1" cx="10.64" cy="75.16" r="1.68"/><circle class="cls-1" cx="18.52" cy="75.16" r="1.68"/><circle class="cls-1" cx="26.4" cy="75.16" r="1.68"/><circle class="cls-1" cx="34.28" cy="75.16" r="1.68"/><path class="cls-1" d="M42.16,73.49a1.68,1.68,0,1,0,1.68,1.67A1.68,1.68,0,0,0,42.16,73.49Z"/><circle class="cls-1" cx="50.04" cy="75.16" r="1.68"/><circle class="cls-1" cx="57.92" cy="75.16" r="1.68"/><circle class="cls-1" cx="65.79" cy="75.16" r="1.68"/><path class="cls-1" d="M73.67,73.49a1.68,1.68,0,1,0,1.68,1.67A1.67,1.67,0,0,0,73.67,73.49Z"/><path class="cls-1" d="M81.55,73.49a1.68,1.68,0,1,0,1.68,1.67A1.68,1.68,0,0,0,81.55,73.49Z"/><path class="cls-1" d="M89.43,73.49a1.68,1.68,0,1,0,1.68,1.67A1.68,1.68,0,0,0,89.43,73.49Z"/><circle class="cls-1" cx="18.52" cy="83.57" r="1.68"/><circle class="cls-1" cx="26.4" cy="83.57" r="1.68"/><circle class="cls-1" cx="34.28" cy="83.57" r="1.68"/><path class="cls-1" d="M42.16,81.89a1.68,1.68,0,1,0,1.68,1.68A1.68,1.68,0,0,0,42.16,81.89Z"/><circle class="cls-1" cx="50.04" cy="83.57" r="1.68"/><circle class="cls-1" cx="57.92" cy="83.57" r="1.68"/><circle class="cls-1" cx="65.79" cy="83.57" r="1.68"/><path class="cls-1" d="M73.67,81.89a1.68,1.68,0,1,0,1.68,1.68A1.68,1.68,0,0,0,73.67,81.89Z"/><path class="cls-1" d="M81.55,81.89a1.68,1.68,0,1,0,1.68,1.68A1.68,1.68,0,0,0,81.55,81.89Z"/><circle class="cls-1" cx="26.4" cy="91.98" r="1.68"/><circle class="cls-1" cx="34.28" cy="91.98" r="1.68"/><path class="cls-1" d="M42.16,90.3A1.68,1.68,0,1,0,43.84,92,1.68,1.68,0,0,0,42.16,90.3Z"/><circle class="cls-1" cx="50.04" cy="91.98" r="1.68"/><circle class="cls-1" cx="57.92" cy="91.98" r="1.68"/><circle class="cls-1" cx="65.79" cy="91.98" r="1.68"/><path class="cls-1" d="M73.67,90.3A1.68,1.68,0,1,0,75.35,92,1.68,1.68,0,0,0,73.67,90.3Z"/><path class="cls-1" d="M42.16,98.71a1.67,1.67,0,0,0-1.17.47c.87.16,1.75.3,2.64.41A1.68,1.68,0,0,0,42.16,98.71Z"/><path class="cls-1" d="M50,98.71A1.67,1.67,0,0,0,48.42,100q.8,0,1.62,0t1.62,0A1.68,1.68,0,0,0,50,98.71Z"/><path class="cls-1" d="M56.45,99.59c.88-.11,1.76-.25,2.63-.41a1.67,1.67,0,0,0-2.63.41Z"/></g><path class="cls-3" d="M46,73H37a.8.8,0,0,1-.2-.49c-.17-1-.31-2-.51-3a1,1,0,0,1,.24-.88c.6-.74,1.38-1.28,2-2,.11-.12.27-.2.32-.42-.88-.17-1.77-.25-2.65-.4a1.27,1.27,0,0,0-.48-.06.9.9,0,0,1-.83-.6c-.4-.82-.79-1.65-1.25-2.44-.07-.11-.1-.3-.25-.3s-.19.21-.26.33c-.4.79-.8,1.58-1.18,2.38a1,1,0,0,1-.92.63c-.9.12-1.81.27-2.71.4-.11,0-.27,0-.32.13s.1.2.18.29c.63.69,1.34,1.28,2,1.92a1,1,0,0,1,.33,1c-.22,1.12-.37,2.26-.59,3.38a.44.44,0,0,1-.08.11H26.32c-.2,0-.27,0-.23-.23a1.76,1.76,0,0,0,0-.23q0-23,0-46.09c0-.39.09-.44.45-.44H72.66c.31,0,.41,0,.41.39q0,23.1,0,46.22c0,.31-.07.38-.38.37-1.16,0-2.32,0-3.48,0a1,1,0,0,1-.08-.11c-.22-1.16-.39-2.34-.59-3.51a.74.74,0,0,1,.24-.74c.56-.55,1.19-1,1.72-1.62a.46.46,0,0,1,.07-.07c.16-.19.47-.38.4-.62s-.43-.13-.65-.2a2,2,0,0,0-.48-.07c-.62-.1-1.23-.19-1.85-.26a1,1,0,0,1-.85-.6c-.38-.83-.83-1.63-1.26-2.43-.06-.12-.09-.32-.23-.32s-.19.21-.26.34c-.4.78-.8,1.57-1.18,2.37a1.05,1.05,0,0,1-.9.65c-1,.13-2.05.26-3.07.46,0,.16.11.22.19.29q1,1.05,2.07,2.07a.94.94,0,0,1,.29.91c-.2,1-.34,2-.51,3a.81.81,0,0,1-.21.49h-9a.85.85,0,0,1-.18-.51c-.15-1-.32-1.92-.5-2.88a1.1,1.1,0,0,1,.36-1.09c.73-.74,1.49-1.44,2.24-2.15,0-.2-.13-.1-.2-.14-1-.14-2-.32-2.94-.43a1.1,1.1,0,0,1-1-.72c-.32-.81-.74-1.58-1.13-2.36-.06-.11-.06-.31-.21-.31s-.2.2-.27.33c-.41.75-.75,1.53-1.1,2.31a1.2,1.2,0,0,1-1,.77c-1,.12-1.94.26-2.9.41-.07,0-.25-.06-.2.15.8.71,1.56,1.46,2.31,2.21a1,1,0,0,1,.31.94c-.17,1-.36,2-.52,3A.92.92,0,0,1,46,73Z"/><path class="cls-4" d="M36.16,65.74c1,.06,2,.28,2.89.39-.55.59-1.07,1.24-1.68,1.79-.36.31-.61.7-1,1-.14.12-.07.31,0,.47.2,1.19.41,2.38.61,3.57H36.8a33,33,0,0,1-3-1.5.86.86,0,0,0-1,0c-.76.48-1.62.77-2.37,1.27a.72.72,0,0,1-.65.12c.1-1.07.32-2.13.52-3.18A1.09,1.09,0,0,0,30,68.52c-.75-.64-1.43-1.36-2.14-2.06-.08-.07-.2-.17-.18-.24s.19-.1.31-.12l3.19-.46a.7.7,0,0,0,.58-.43c.44-.95.92-1.88,1.38-2.82.05-.1.07-.27.2-.28s.19.18.24.29c.46.89.94,1.77,1.35,2.68a.87.87,0,0,0,.76.58C35.84,65.75,36,65.64,36.16,65.74Z"/><path class="cls-4" d="M62.07,73c.21-1.19.41-2.39.62-3.58a.67.67,0,0,0-.2-.65c-.84-.85-1.67-1.73-2.49-2.6l2-.3c.49-.08,1-.14,1.49-.21a.63.63,0,0,0,.54-.4c.45-1,.94-1.93,1.42-2.89,0-.09.06-.24.17-.25s.16.16.21.26c.48.93,1,1.85,1.41,2.79a.82.82,0,0,0,.76.51c.62.08,1.23.19,1.85.29.14.08.31,0,.45.08a1.51,1.51,0,0,1,1,.22A23,23,0,0,1,69,68.63a.78.78,0,0,0-.3.81c.21,1,.35,2,.51,3a4.07,4.07,0,0,1,0,.49.81.81,0,0,1-.69-.14c-.78-.43-1.6-.81-2.37-1.26a.86.86,0,0,0-.86-.07c-.85.39-1.63.94-2.51,1.29a5.2,5.2,0,0,0-.53.26Z"/><path class="cls-4" d="M55.2,66.29c-.84.82-1.67,1.65-2.51,2.46a.6.6,0,0,0-.19.6c.23,1.2.4,2.41.6,3.62H53a20.94,20.94,0,0,1-2.93-1.44,1.16,1.16,0,0,0-1.1,0A27.49,27.49,0,0,1,46.05,73H46c.16-1,.28-2.07.51-3.08a1.35,1.35,0,0,0-.46-1.5c-.75-.66-1.44-1.4-2.15-2.1,0-.25.2-.07.26-.17,1-.16,2-.33,3.05-.46a.88.88,0,0,0,.79-.55c.41-.89.86-1.75,1.28-2.63.08-.16.15-.34.32-.35s.15.22.21.34c.47.92.93,1.85,1.37,2.79.16.35.45.35.74.39l2.84.4a1.72,1.72,0,0,1,.21.07C55,66.23,55.24,66,55.2,66.29Z"/><path class="cls-3" d="M62.25,73c0-.17.19-.18.3-.24,1-.52,2-1,3-1.53.2-.11.32,0,.46.09l2.77,1.44c.15.08.28.19.46.16V73Z"/><path class="cls-3" d="M29.84,72.89a3.62,3.62,0,0,0,1.32-.65,15.42,15.42,0,0,0,2-1.06.35.35,0,0,1,.3,0c1.1.62,2.27,1.1,3.33,1.8h-7Z"/><path class="cls-3" d="M46.05,73c.41-.41,1-.5,1.48-.81s1.21-.64,1.81-1a.32.32,0,0,1,.33,0c1.13.55,2.24,1.14,3.34,1.75Z"/><path class="cls-4" d="M52.06,47.07H50.41c.49-.27,1.05-.31,1.56-.53A6.94,6.94,0,0,0,56.31,41c0-.2.07-.39.1-.59a1.75,1.75,0,0,0,0-.72,7.28,7.28,0,0,0-2.27-4.77A7,7,0,0,0,50.07,33a7.3,7.3,0,0,0-1.55,0,7,7,0,0,0-3.73,1.62,7.56,7.56,0,0,0-1.86,2.54,10.75,10.75,0,0,0-.56,2.09,5.39,5.39,0,0,0,0,1.27,7.15,7.15,0,0,0,5.9,6.51H46.71c-.21.1-.45,0-.66.07a15.89,15.89,0,0,0-2.71.71,10.62,10.62,0,0,0-3.29,2.06,10.75,10.75,0,0,0-2.56,3.45c0,.09-.05.21-.2.27a15.71,15.71,0,0,1-2-2.73,16.47,16.47,0,0,1-2.09-5.66,2.29,2.29,0,0,1,0-.37c-.11-.17,0-.37-.08-.55l0-.25c-.1-.31,0-.63-.07-.94v-.92a2.09,2.09,0,0,0,0-.61A2.62,2.62,0,0,1,33,41l0-.33c.08-.15,0-.32.07-.47A12,12,0,0,1,34,36.64a16.39,16.39,0,0,1,7.39-8.49,14.94,14.94,0,0,1,6.45-2,2.23,2.23,0,0,1,.63,0,3.33,3.33,0,0,0,.77,0h.28a1.87,1.87,0,0,0,.53,0,4.13,4.13,0,0,1,.86,0l.26,0c.18.09.38,0,.56.07a11.09,11.09,0,0,1,2.59.61,23.13,23.13,0,0,1,2.38.95,19.1,19.1,0,0,1,2.51,1.56,18.26,18.26,0,0,1,2.5,2.31A11.86,11.86,0,0,1,63.41,34a16.17,16.17,0,0,1,2.08,5.26,9,9,0,0,1,.25,2.07,15.1,15.1,0,0,1,0,2.33l0,.36c-.09.18,0,.38-.07.56A12.13,12.13,0,0,1,65,47.39a17.19,17.19,0,0,1-1.22,2.94,17.44,17.44,0,0,1-2.22,3.18c-.25.28-.29,0-.35-.14a10.41,10.41,0,0,0-1.63-2.51,10.74,10.74,0,0,0-6.49-3.62l-.4-.1C52.51,47.05,52.27,47.16,52.06,47.07Z"/><path class="cls-4" d="M52.39,49.9A7.18,7.18,0,0,1,55.45,51a12.32,12.32,0,0,1,1.39,1,7.27,7.27,0,0,1,1.74,2.19c.23.41.38.85.58,1.27.08.19.05.26-.13.39a16.78,16.78,0,0,1-7.09,3,3.31,3.31,0,0,1-.45,0c-.16.08-.34,0-.5.07l-.42,0a15.17,15.17,0,0,1-2.43,0l-.27,0c-.2-.09-.44,0-.64-.08a13.48,13.48,0,0,1-4.06-1,16.18,16.18,0,0,1-3.33-1.84.48.48,0,0,1-.21-.67A8.21,8.21,0,0,1,46,49.93a16.69,16.69,0,0,1,3.54-.12h1.82a1.76,1.76,0,0,0,.51,0A1.31,1.31,0,0,1,52.39,49.9Z"/><path class="cls-4" d="M50,35.8a3.29,3.29,0,0,1,1.79.72,4,4,0,0,1,1.79,2.58,4.09,4.09,0,0,1-1.51,4.23,4.25,4.25,0,0,1-6.76-2,4.32,4.32,0,0,1,3.13-5.53,2.19,2.19,0,0,1,.36,0A3.72,3.72,0,0,1,50,35.8Z"/><path class="cls-5" d="M48.14,58.88h2.43A7.34,7.34,0,0,1,48.14,58.88Z"/><path class="cls-5" d="M65.74,43.69V41.36A6.75,6.75,0,0,1,65.74,43.69Z"/><path class="cls-6" d="M48.52,33a3.13,3.13,0,0,1,1.55,0Z"/><path class="cls-7" d="M42.37,40.56a2.29,2.29,0,0,1,0-1.27Z"/><path class="cls-8" d="M50,35.8h-1.2A1.83,1.83,0,0,1,50,35.8Z"/><path class="cls-9" d="M50.92,26.18H50s0,0,0,0,0,0,0,0A2.09,2.09,0,0,1,50.92,26.18Z"/><path class="cls-10" d="M33,43.13c.16.3,0,.63.07.94A2.13,2.13,0,0,1,33,43.13Z"/><path class="cls-11" d="M49.25,26.11c-.23.15-.49.05-.73.07,0,0,0,0,0-.05l0,0Z"/><path class="cls-12" d="M56.41,39.65a.77.77,0,0,1,0,.72Z"/><path class="cls-13" d="M48.52,26.11v.07h-.67A1.18,1.18,0,0,1,48.52,26.11Z"/><path class="cls-14" d="M33,41v.68s0,0-.07,0A1.22,1.22,0,0,1,33,41Z"/><path class="cls-15" d="M46.05,47.14c.21-.15.44,0,.66-.07A1.23,1.23,0,0,1,46.05,47.14Z"/><path class="cls-16" d="M52.06,47.07c.22,0,.46-.08.67.07A1.27,1.27,0,0,1,52.06,47.07Z"/><path class="cls-17" d="M47.23,58.78c.21,0,.44-.07.64.08A1,1,0,0,1,47.23,58.78Z"/><path class="cls-18" d="M51.74,26.27c-.19,0-.39.07-.56-.07A.9.9,0,0,1,51.74,26.27Z"/><path class="cls-19" d="M65.65,44.61c0-.19-.07-.39.07-.56A.83.83,0,0,1,65.65,44.61Z"/><path class="cls-20" d="M52.39,49.9h-.57s0,0,0,0,0,0,0,0A.81.81,0,0,1,52.39,49.9Z"/><path class="cls-12" d="M33,41.66H33c0,.18.07.38-.07.55Z"/><path class="cls-21" d="M33.06,44.32c.14.17,0,.37.08.55A.81.81,0,0,1,33.06,44.32Z"/><path class="cls-22" d="M50,26.11v.07c-.16,0-.32.06-.46-.07Z"/><path class="cls-23" d="M33.13,40.18c0,.16.06.33-.07.47A.64.64,0,0,1,33.13,40.18Z"/><path class="cls-24" d="M51.82,49.82v.08c-.15,0-.32.05-.46-.08Z"/><path class="cls-25" d="M51,58.86c.15-.13.33-.06.5-.07A.67.67,0,0,1,51,58.86Z"/><path class="cls-26" d="M36.16,65.74c-.16,0-.32.06-.46-.08A.58.58,0,0,1,36.16,65.74Z"/><path class="cls-26" d="M70.31,66c-.15,0-.32,0-.45-.08A.52.52,0,0,1,70.31,66Z"/><path class="cls-27" d="M44.12,66.12l-.26.17C43.78,66.1,43.78,66.1,44.12,66.12Z"/><path class="cls-27" d="M55.2,66.29l-.27-.17C55.28,66.1,55.28,66.1,55.2,66.29Z"/></svg>